<svg width="64" height="63" viewBox="0 0 64 63" fill="none" xmlns="http://www.w3.org/2000/svg">
<path d="M9.6875 11.8125H16.121C16.8167 11.8125 17.1646 11.8125 17.4265 12.0013C17.6883 12.19 17.7983 12.52 18.0183 13.18L20.1875 19.6875" stroke="#222222" stroke-linecap="round"/>
<path d="M46.4375 45.9375H20.3374C19.0711 45.9375 18.438 45.9375 18.1387 45.5222C17.8394 45.1069 18.0396 44.5063 18.44 43.305L19.2758 40.7976C19.7158 39.4776 19.9358 38.8175 20.4596 38.44C20.9834 38.0625 21.6791 38.0625 23.0705 38.0625H38.5625" stroke="#222222" stroke-linecap="round" stroke-linejoin="round"/>
<path d="M41.4912 38.0625H25.4501C24.1709 38.0625 23.5312 38.0625 23.0303 37.7322C22.5294 37.4019 22.2774 36.814 21.7735 35.6382L16.7297 23.8693C15.9202 21.9804 15.5154 21.036 15.96 20.3618C16.4047 19.6875 17.4321 19.6875 19.4871 19.6875H49.143C51.442 19.6875 52.5915 19.6875 53.0251 20.4346C53.4587 21.1817 52.8883 22.1798 51.7477 24.1759L44.9642 36.0471C44.4022 37.0304 44.1213 37.5221 43.6557 37.7923C43.1901 38.0625 42.6238 38.0625 41.4912 38.0625Z" stroke="#222222" stroke-linecap="round"/>
<circle cx="45.125" cy="52.5" r="2.625" fill="#222222"/>
<circle cx="24.125" cy="52.5" r="2.625" fill="#222222"/>
</svg>
