<svg width="48" height="45" viewBox="0 0 48 45" fill="none" xmlns="http://www.w3.org/2000/svg">
<rect width="48" height="45" rx="10" fill="#EEECEC"/>
<path d="M33.5082 29.0454L33.0522 28.8403V28.8403L33.5082 29.0454ZM31.2773 32.1207L31.616 32.4884V32.4884L31.2773 32.1207ZM27.9384 34.1755L28.1167 34.6426H28.1167L27.9384 34.1755ZM20.0615 34.1755L20.2398 33.7083H20.2398L20.0615 34.1755ZM16.7227 32.1207L17.0614 31.7529L16.7227 32.1207ZM14.4917 29.0454L14.0357 29.2505H14.0357L14.4917 29.0454ZM29.4527 14.5511L29.7733 14.9349L29.4527 14.5511ZM29.628 14.549L29.9484 14.1651L29.628 14.549ZM34.267 26.0965L33.7793 25.9861L34.267 26.0965ZM34.2634 26.1194L33.765 26.0793L34.2634 26.1194ZM27.8008 16.0086L27.4011 16.3091L27.8008 16.0086ZM28.0418 16.0133L28.4294 16.3291L28.0418 16.0133ZM23.1368 11.6019L23.3819 12.0377L23.1368 11.6019ZM23.2809 11.6107L23.5615 11.1968L23.2809 11.6107ZM22.8918 11.166C22.4348 11.4229 20.0302 12.8292 17.734 15.2343C15.44 17.637 13.2083 21.0861 13.2083 25.4179H14.2083C14.2083 21.4455 16.2549 18.2316 18.4572 15.9249C20.6573 13.6206 22.967 12.2709 23.3819 12.0377L22.8918 11.166ZM28.2004 15.7082C26.2088 13.0588 24.004 11.4968 23.5615 11.1968L23.0003 12.0245C23.395 12.2921 25.5013 13.7819 27.4011 16.3091L28.2004 15.7082ZM28.4294 16.3291C29.0583 15.5573 29.5849 15.0922 29.7733 14.9349L29.1321 14.1674C28.9046 14.3575 28.3307 14.8672 27.6542 15.6974L28.4294 16.3291ZM29.3077 14.9329C29.9013 15.4282 33.7916 18.9241 33.7916 25.4165H34.7916C34.7916 18.4938 30.6417 14.7437 29.9484 14.1651L29.3077 14.9329ZM33.7916 25.4165V25.4179H34.7916V25.4165H33.7916ZM33.7916 25.4179V25.8748H34.7916V25.4179H33.7916ZM33.7916 25.8748C33.7916 25.9136 33.7873 25.9508 33.7793 25.9861L34.7547 26.2068C34.7789 26.0995 34.7916 25.9883 34.7916 25.8748H33.7916ZM33.765 26.0793C33.6887 27.0263 33.4488 27.9584 33.0522 28.8403L33.9642 29.2505C34.4072 28.2654 34.6762 27.2219 34.7618 26.1596L33.765 26.0793ZM33.0522 28.8403C32.5636 29.9269 31.8461 30.917 30.9385 31.7529L31.616 32.4884C32.6198 31.5639 33.4185 30.464 33.9642 29.2505L33.0522 28.8403ZM30.9385 31.7529C30.0309 32.5889 28.9512 33.2539 27.7602 33.7083L28.1167 34.6426C29.4229 34.1443 30.6123 33.4129 31.616 32.4884L30.9385 31.7529ZM27.7602 33.7083C26.5691 34.1627 25.2913 34.397 24 34.397V35.397C25.4117 35.397 26.8104 35.141 28.1167 34.6426L27.7602 33.7083ZM24 34.397C22.7087 34.397 21.4308 34.1627 20.2398 33.7083L19.8833 34.6426C21.1895 35.141 22.5882 35.397 24 35.397V34.397ZM20.2398 33.7083C19.0487 33.2539 17.969 32.5889 17.0614 31.7529L16.3839 32.4884C17.3877 33.4129 18.5771 34.1443 19.8833 34.6426L20.2398 33.7083ZM17.0614 31.7529C16.1539 30.917 15.4364 29.9269 14.9477 28.8403L14.0357 29.2505C14.5815 30.464 15.3801 31.5639 16.3839 32.4884L17.0614 31.7529ZM14.9477 28.8403C14.4591 27.7539 14.2083 26.5911 14.2083 25.4179H13.2083C13.2083 26.7343 13.4899 28.0368 14.0357 29.2505L14.9477 28.8403ZM29.7733 14.9349C29.6512 15.0368 29.4523 15.0535 29.3077 14.9329L29.9484 14.1651C29.6995 13.9575 29.3584 13.9784 29.1321 14.1674L29.7733 14.9349ZM33.7793 25.9861C33.773 26.0142 33.7678 26.0454 33.765 26.0793L34.7618 26.1596C34.7603 26.178 34.7576 26.1939 34.7547 26.2068L33.7793 25.9861ZM27.4011 16.3091C27.6559 16.648 28.1619 16.6573 28.4294 16.3291L27.6542 15.6974C27.7966 15.5226 28.0645 15.5274 28.2004 15.7082L27.4011 16.3091ZM23.3819 12.0377C23.3243 12.0701 23.2521 12.0889 23.1747 12.0835C23.0996 12.0782 23.0403 12.0517 23.0003 12.0245L23.5615 11.1968C23.3782 11.0725 23.1235 11.0358 22.8918 11.166L23.3819 12.0377Z" fill="#959595"/>
<path d="M29.5406 29.6885L29.0407 29.6985L29.0407 29.6993L29.5406 29.6885ZM23.921 21.8249L23.6377 21.413L23.921 21.8249ZM24.0789 21.8249L23.7956 22.2368L24.0789 21.8249ZM23.6377 21.413C23.2846 21.6558 21.8829 22.6568 20.5643 24.1239C19.2576 25.5777 17.9583 27.5711 17.9583 29.7922L18.9583 29.7922C18.9583 27.9473 20.0523 26.1895 21.308 24.7924C22.5517 23.4086 23.8814 22.459 24.2044 22.2369L23.6377 21.413ZM30.0405 29.6786C29.9967 27.4848 28.6986 25.5199 27.4017 24.0863C26.0931 22.6397 24.7123 21.6537 24.3623 21.4129L23.7956 22.2368C24.1155 22.4569 25.4255 23.3923 26.6601 24.7572C27.9065 26.135 29.0042 27.8715 29.0407 29.6985L30.0405 29.6786ZM29.0407 29.6993C29.0413 29.7301 29.0417 29.7609 29.0417 29.7918H30.0417C30.0417 29.7537 30.0413 29.7157 30.0404 29.6778L29.0407 29.6993ZM29.0417 29.7918C29.0417 32.2967 26.8239 34.396 24 34.396V35.396C27.2972 35.396 30.0417 32.9249 30.0417 29.7918H29.0417ZM24 34.396C21.1762 34.396 18.9586 32.297 18.9583 29.7922L17.9583 29.7923C17.9586 32.9251 20.703 35.396 24 35.396V34.396ZM17.9583 29.7922C17.9582 30.0608 18.1746 30.2922 18.4583 30.2922V29.2922C18.7419 29.2922 18.9583 29.5236 18.9583 29.7922L17.9583 29.7922ZM18.9583 29.7922C18.9583 29.527 18.7453 29.2922 18.4583 29.2922V30.2922C18.1714 30.2922 17.9584 30.0575 17.9583 29.7923L18.9583 29.7922ZM24.2044 22.2369C24.1507 22.2738 24.08 22.2994 24.0002 22.2994C23.9204 22.2995 23.8495 22.2739 23.7956 22.2368L24.3623 21.4129C24.142 21.2614 23.8574 21.2618 23.6377 21.413L24.2044 22.2369Z" fill="#959595"/>
</svg>
