<svg width="60" height="60" viewBox="0 0 60 60" fill="none" xmlns="http://www.w3.org/2000/svg">
<path fill-rule="evenodd" clip-rule="evenodd" d="M30 60C13.4315 60 0 46.5685 0 30C0 13.4315 13.4315 0 30 0C46.5685 0 60 13.4315 60 30C60 46.5685 46.5685 60 30 60ZM30.418 28.3163C32.8744 28.3163 44.818 21.6 44.818 21.6L44.8372 20.4C44.8372 19.0752 43.762 18 42.4336 18H18.4024C17.0752 18 16 19.0752 16 20.4V21.4692C16 21.4692 28.0744 28.3163 30.418 28.3163ZM16.0192 25.2C16.018 25.2 28.0744 31.6163 30.418 31.6163C32.9872 31.6163 44.818 25.2 44.818 25.2L44.8372 39.6C44.8372 40.9248 43.762 42 42.4336 42H18.4024C17.0764 42 16 40.9248 16 39.6L16.0192 25.2Z" fill="black"/>
</svg>
