<svg width="60" height="60" viewBox="0 0 60 60" fill="none" xmlns="http://www.w3.org/2000/svg">
<path fill-rule="evenodd" clip-rule="evenodd" d="M30 0C46.5685 0 60 13.4315 60 30C60 46.5685 46.5685 60 30 60C13.4315 60 0 46.5685 0 30C0 13.4315 13.4315 0 30 0ZM37.9926 26.198C37.8467 25.0126 37.4824 24.0818 36.8353 23.2574C35.9952 22.1958 34.9215 21.5601 33.3319 21.183C32.2959 20.9317 31.8774 20.9605 31.5027 21.3028C31.1537 21.6234 31.0856 22.2662 31.3523 22.6825C31.5398 22.9846 31.7562 23.0928 32.358 23.2109C33.1594 23.3584 33.7132 23.5497 34.217 23.8378C35.2863 24.4552 35.7842 25.4214 35.8376 26.9856C35.8625 27.72 35.9259 27.9458 36.1825 28.2063C36.6579 28.6824 37.504 28.5898 37.863 28.02C37.9947 27.8053 38.0147 27.7118 38.0287 27.2131C38.0378 26.9043 38.0246 26.4448 37.9926 26.198ZM38.0069 18.9252C40.5491 20.981 41.9696 23.9029 42.1808 27.5346C42.2696 28.965 42.1516 29.4309 41.6469 29.6962C41.1916 29.9421 40.6757 29.8612 40.3217 29.491C40.0872 29.2502 39.9972 28.9209 40.0006 28.3378C40.0109 26.7256 39.6395 24.9252 39.0355 23.6759C38.3366 22.2219 37.2562 20.9845 35.897 20.0799C34.7065 19.2853 33.1308 18.7486 31.6032 18.615C30.6123 18.5283 30.2584 18.3604 30.0682 17.8854C29.9504 17.6012 29.9815 17.11 30.1197 16.89C30.2503 16.6871 30.5434 16.4627 30.7506 16.4034C30.9702 16.3393 32.2501 16.4513 32.9453 16.5895C34.8432 16.9757 36.5745 17.7701 38.0069 18.9252ZM46.8153 41.5204C46.7443 41.3128 46.5785 40.9926 46.4601 40.8088C45.714 39.6822 41.7057 36.5453 39.7044 35.5194C38.5617 34.9324 37.715 34.7367 37.0874 34.9205C36.4124 35.1103 36.0571 35.4245 34.9262 36.8299C34.4704 37.3933 34.0026 37.921 33.8783 38.004C33.5704 38.2175 32.9664 38.3895 32.5402 38.3895C31.5514 38.3835 29.7573 37.7431 28.3778 36.901C27.3061 36.2488 25.9325 35.0807 24.8786 33.9243C23.6351 32.5664 22.7885 31.3686 22.1194 30.0166C21.255 28.2791 21.0359 27.2177 21.3971 26.4408C21.4859 26.2452 21.6043 26.0377 21.6576 25.9724C21.7109 25.9132 22.2675 25.4565 22.8832 24.9584C24.0911 23.9978 24.2865 23.7784 24.5114 23.1202C24.7956 22.284 24.7187 21.4301 24.2806 20.5704C23.943 19.918 23.0608 18.4949 22.4214 17.5758C21.5747 16.3662 19.4669 13.7808 19.0464 13.4308C18.2886 12.8142 17.3177 12.7073 16.2459 13.1225C15.1151 13.5613 12.9954 15.2691 12.0895 16.461C11.2724 17.5402 10.9587 18.3051 10.9113 19.3132C10.8698 20.1434 10.9409 20.4873 11.379 21.5488C14.8072 29.8742 19.9227 36.5216 26.9509 41.7992C30.6218 44.5565 34.4289 46.6557 38.3781 48.0907C40.6813 48.9268 41.6819 48.9683 42.8602 48.2805C43.3575 47.9839 44.5891 46.7209 45.2758 45.8018C46.4127 44.2718 46.8331 43.5662 46.9515 43.0029C47.0344 42.6175 46.9693 41.9474 46.8153 41.5204ZM45.3014 22.7507C46.0226 24.6293 46.3685 26.3144 46.4443 28.3687C46.4564 28.7745 46.4508 29.518 46.4245 30.0217C46.3698 30.9872 46.3174 31.179 46.0394 31.4345C45.5926 31.8537 44.7218 31.7538 44.3915 31.2486C44.219 30.9776 44.1949 30.779 44.2282 29.6509C44.324 26.3141 43.6491 23.7014 42.0234 21.0889C40.0806 17.9546 37.1747 15.8432 33.396 14.8102C32.4323 14.5473 31.6202 14.387 30.3573 14.217C29.5345 14.1093 29.3543 14.0638 29.1513 13.9388C28.5379 13.5459 28.5297 12.5511 29.1412 12.1522C29.4568 11.9417 29.6894 11.9323 30.718 12.064C33.734 12.4409 36.4252 13.3371 38.6366 14.6913C40.2217 15.6633 41.2211 16.5365 42.5078 18.0658C43.8687 19.6968 44.5894 20.9027 45.3014 22.7507Z" fill="black"/>
</svg>
