<svg width="60" height="60" viewBox="0 0 60 60" fill="none" xmlns="http://www.w3.org/2000/svg">
<path fill-rule="evenodd" clip-rule="evenodd" d="M0 30C0 46.5685 13.4315 60 30 60C46.5685 60 60 46.5685 60 30C60 13.4315 46.5685 0 30 0C13.4315 0 0 13.4315 0 30ZM48.8277 28.8519C48.8237 38.6854 40.8244 46.6867 30.9888 46.6907H30.9815C27.9959 46.6897 25.0623 45.9406 22.4567 44.5194L13 47.0001L15.5308 37.7561C13.9697 35.0507 13.1482 31.9819 13.1496 28.8379C13.1535 19.0022 21.156 11.0001 30.9887 11.0001C35.7608 11.0021 40.2398 12.8599 43.6078 16.2318C46.9757 19.6036 48.8296 24.0855 48.8277 28.8519Z" fill="black"/>
<path fill-rule="evenodd" clip-rule="evenodd" d="M17.2831 42.7621L22.8948 41.29L23.4363 41.6113C25.7127 42.9622 28.3222 43.677 30.9828 43.6781H30.9888C39.161 43.6781 45.8124 37.0266 45.8157 28.851C45.8172 24.8891 44.2764 21.164 41.4771 18.3614C38.6777 15.5588 34.955 14.0146 30.9947 14.0132C22.8162 14.0132 16.1647 20.664 16.1615 28.839C16.1603 31.6406 16.9442 34.369 18.4284 36.7297L18.781 37.2907L17.2831 42.7621ZM39.3655 32.6926C39.6764 32.8428 39.8863 32.9443 39.976 33.0939C40.0874 33.2797 40.0874 34.1722 39.7161 35.2135C39.3445 36.2547 37.5638 37.205 36.7074 37.3329C35.9395 37.4477 34.9677 37.4956 33.9 37.1563C33.2525 36.9509 32.4223 36.6766 31.3589 36.2173C27.1802 34.413 24.3563 30.363 23.8226 29.5975C23.7852 29.5439 23.759 29.5064 23.7445 29.4869L23.7409 29.4821C23.505 29.1674 21.9244 27.0585 21.9244 24.8759C21.9244 22.8228 22.933 21.7466 23.3972 21.2512C23.429 21.2173 23.4583 21.1861 23.4844 21.1575C23.893 20.7112 24.3759 20.5997 24.6731 20.5997C24.9702 20.5997 25.2677 20.6024 25.5274 20.6155C25.5594 20.6171 25.5927 20.6169 25.6272 20.6167C25.8869 20.6151 26.2108 20.6133 26.5302 21.3806C26.6531 21.6759 26.833 22.1138 27.0227 22.5755C27.4062 23.5093 27.83 24.5409 27.9045 24.6902C28.016 24.9134 28.0902 25.1736 27.9417 25.4712C27.9194 25.5158 27.8987 25.5579 27.879 25.5981C27.7674 25.826 27.6854 25.9936 27.496 26.2147C27.4215 26.3016 27.3445 26.3954 27.2675 26.4891C27.1142 26.6759 26.9609 26.8626 26.8273 26.9956C26.6042 27.2179 26.3719 27.459 26.6319 27.9053C26.8919 28.3515 27.7865 29.8111 29.1116 30.9931C30.536 32.2636 31.774 32.8006 32.4015 33.0728C32.524 33.1259 32.6233 33.169 32.6961 33.2054C33.1417 33.4286 33.4017 33.3913 33.6617 33.0939C33.9217 32.7964 34.776 31.7923 35.0731 31.3461C35.3702 30.9001 35.6674 30.9744 36.0759 31.123C36.4846 31.2719 38.676 32.3501 39.1218 32.5732C39.2088 32.6168 39.2901 32.6561 39.3655 32.6926Z" fill="black"/>
</svg>
